<?xml version="1.0" standalone="no"?>
<!DOCTYPE svg PUBLIC "-//W3C//DTD SVG 20010904//EN"
 "http://www.w3.org/TR/2001/REC-SVG-20010904/DTD/svg10.dtd">
<svg version="1.0" xmlns="http://www.w3.org/2000/svg"
 width="400.000000pt" height="400.000000pt" viewBox="0 0 400.000000 400.000000"
 preserveAspectRatio="xMidYMid meet">
<metadata>
Created by potrace 1.11, written by Peter Selinger 2001-2013
</metadata>
<g transform="translate(0.000000,400.000000) scale(0.100000,-0.100000)"
fill="#000000" stroke="none">
<path d="M0 2000 l0 -2000 800 0 c550 0 816 3 852 11 161 34 291 160 334 324
11 39 14 186 14 665 0 484 3 626 14 667 34 127 124 235 241 289 40 18 87 35
104 36 17 1 31 6 31 11 0 4 -6 7 -12 6 -25 -5 -84 14 -141 44 -107 56 -192
163 -223 280 -11 41 -13 181 -14 659 0 340 -4 629 -10 657 -21 112 -112 237
-215 294 -101 57 -100 57 -972 57 l-803 0 0 -2000z"/>
<path d="M2555 3985 c162 -51 286 -183 315 -335 6 -32 10 -297 11 -663 1 -661
0 -655 57 -761 52 -96 178 -193 275 -211 47 -9 47 -21 0 -30 -98 -18 -222
-113 -275 -211 -57 -106 -57 -100 -57 -766 -1 -337 -4 -626 -6 -641 -31 -165
-145 -295 -305 -345 l-65 -21 748 0 747 -1 0 2000 0 2000 -742 -1 c-618 -1
-736 -3 -703 -14z"/>
</g>
</svg>
