<svg xmlns="http://www.w3.org/2000/svg" viewBox="0 0 200 45.9"><defs><style>.cls-1{fill:#127e5e;}.cls-2{fill:#3fac9a;}.cls-3{fill:#393938;}.cls-4{fill:#017e5e;}</style></defs><title>logo-standort</title><g id="Ebene_2" data-name="Ebene 2"><g id="logo-standort"><path class="cls-1" d="M197.17,8.35a1.84,1.84,0,0,0-1.84,1.84v4.68a1.85,1.85,0,0,1-1.84,1.84H200V0h-6.51a1.84,1.84,0,0,1,1.84,1.84V6.51a1.84,1.84,0,0,0,1.84,1.84Z"/><path class="cls-2" d="M193.49,8.35a1.84,1.84,0,0,0-1.84,1.84v4.68a1.85,1.85,0,0,1-1.84,1.84h-6.52V0h6.52a1.84,1.84,0,0,1,1.84,1.84V6.51A1.84,1.84,0,0,0,193.49,8.35Z"/><path class="cls-3" d="M171.36,45.68h2.53V40.43h.82c1.07,0,1.39.36,1.75,1.31L178,45.68h2.83l-2-4.94c-.25-.56-.65-1.25-1.34-1.3v0a2.9,2.9,0,0,0,2.61-2.93c0-3.51-3.24-3.42-6-3.42h-2.73ZM173.89,35h.84c1.26,0,2.68.13,2.68,1.65s-1.43,1.75-2.68,1.75h-.84ZM158.38,45.68h2.54V40.14H166v5.54h2.54V33.05H166v5.1h-5.06v-5.1h-2.54Zm-14.43,0h2.62l1.11-2.9h5.12l1.09,2.9h2.8l-5-12.63h-2.86Zm8.15-4.89h-3.7l1.83-5.21h0Zm-16.66,4.89h7.44v-2H138V33.05h-2.53Zm-22.84,0H115V35.29l0,0,3.4,10.42h2.43l3.4-10.42h0V45.68h2.43V33.05h-4l-3,9.57h0l-3-9.57H112.6ZM99.41,41.12c0,3.38,1.91,4.78,5.16,4.78s5.15-1.4,5.15-4.78V33.05h-2.53v7.29c0,2.15-.69,3.57-2.62,3.57s-2.63-1.42-2.63-3.57V33.05H99.41ZM88.34,45.68h2.53V40.43h.82c1.06,0,1.39.36,1.75,1.31L95,45.68h2.82l-2-4.94c-.25-.56-.65-1.25-1.34-1.3v0A2.9,2.9,0,0,0,97,36.47c0-3.51-3.25-3.42-6-3.42H88.34ZM90.87,35h.83c1.27,0,2.68.13,2.68,1.65S93,38.44,91.7,38.44h-.83ZM80.62,45.68h2.53V35h3.62v-2H77v2h3.62ZM65,45.68h2.43V36.23h0l4.84,9.45h3.09V33.05H73v9.44h0l-4.81-9.44H65Zm-9.95,0h7.5v-2h-5V40.14h4.51v-2H57.58V35H62.5v-2H55Zm-10.92,0h8.76v-2H46.76l6-8.58V33.05h-8.4v2h5.71l-5.94,8.58Zm-10.29,0h8.76v-2H36.48l6-8.58V33.05h-8.4v2h5.7l-5.94,8.58ZM23,45.68h2.54V40.43h.81c1.07,0,1.39.36,1.76,1.31l1.52,3.94h2.82l-2-4.94c-.25-.56-.65-1.25-1.34-1.3v0a2.89,2.89,0,0,0,2.61-2.93c0-3.51-3.24-3.42-6-3.42H23ZM25.52,35h.83c1.27,0,2.68.13,2.68,1.65s-1.43,1.75-2.68,1.75h-.83ZM13.08,45.68h7.49v-2h-5V40.14h4.51v-2H15.61V35h4.92v-2H13.08ZM0,45.68H2.53V40.14H7.6v5.54h2.54V33.05H7.6v5.1H2.53v-5.1H0Z"/><path class="cls-4" d="M130.79,22.88a4.22,4.22,0,0,1-4.27,4.43h-1.71V18.68h1.59a4.22,4.22,0,0,1,4.39,4.2m2.47.08a6.2,6.2,0,0,0-6-6.25h-5.64a1.1,1.1,0,0,1,.6,1.08V29.32h4.64A6.33,6.33,0,0,0,133.26,23"/><rect class="cls-4" x="135.44" y="16.71" width="2.59" height="12.62"/><path class="cls-4" d="M150.32,19l.74-.82a6.61,6.61,0,0,0-4.28-1.59,6.43,6.43,0,1,0,0,12.85,6.61,6.61,0,0,0,4.33-1.67l-1-1.13h0l-.52-.58a3.91,3.91,0,0,1-2.77,1.1,4.12,4.12,0,0,1,0-8.24,4,4,0,0,1,2.63,1s.74-.78.87-.94"/><path class="cls-4" d="M155.47,27.47V16.71h-3.16a1.16,1.16,0,0,1,.55,1.09V29.32h7.43s.53-1.86.52-1.85Z"/><rect class="cls-4" x="162.23" y="16.71" width="2.56" height="12.62"/><path class="cls-4" d="M109.32,16.71h-3.64l-4,8.88-4-8.88H93.06a1.15,1.15,0,0,1,.55,1.08V29.32H96.2V19.75l4.43,9.57h1.24l4.27-9.57v9.57h2.63V17.8a1.15,1.15,0,0,1,.55-1.09m10,1.9.55-1.9h-8.42A1.15,1.15,0,0,1,112,17.8V29.32h7.57l.58-1.82h-5.56V23.76h4.14l.58-1.78h-4.72V18.61Z"/><path class="cls-4" d="M180.24,16.71h-3.19V25.4l-6.23-8.69H167a1.15,1.15,0,0,1,.56,1.09V29.32h2.63V20.25l6.42,9.07h3V17.8a1.18,1.18,0,0,1,.62-1.09"/></g></g></svg>