<svg xmlns="http://www.w3.org/2000/svg" viewBox="0 0 34.06 24"><defs><style>.cls-1{fill:red;}.cls-2{fill:#fff;}</style></defs><title>youtube</title><g id="Ebene_2" data-name="Ebene 2"><g id="location-map"><g id="_Gruppe_" data-name="&lt;Gruppe&gt;"><path id="_Pfad_" data-name="&lt;Pfad&gt;" class="cls-1" d="M33.35,3.75a4.25,4.25,0,0,0-3-3C27.68,0,17,0,17,0S6.38,0,3.72.72a4.27,4.27,0,0,0-3,3A45,45,0,0,0,0,12a45,45,0,0,0,.71,8.25,4.27,4.27,0,0,0,3,3C6.38,24,17,24,17,24s10.65,0,13.31-.72a4.25,4.25,0,0,0,3-3A45,45,0,0,0,34.06,12,45,45,0,0,0,33.35,3.75Z"/><polygon id="_Pfad_2" data-name="&lt;Pfad&gt;" class="cls-2" points="13.55 17.07 22.45 12 13.55 6.93 13.55 17.07"/></g></g></g></svg>